<svg height="512pt" viewBox="0 -74 512 512" width="512pt" xmlns="http://www.w3.org/2000/svg"><path  style="fill: #FFBF00;" d="m154.011719 323.804688c62.234375 0 112.867187-50.632813 112.867187-112.867188s-50.632812-112.867188-112.867187-112.867188-112.867188 50.632813-112.867188 112.867188 50.632813 112.867188 112.867188 112.867188zm0-205.734376c51.207031 0 92.867187 41.660157 92.867187 92.867188s-41.660156 92.867188-92.867187 92.867188-92.867188-41.660157-92.867188-92.867188 41.660157-92.867188 92.867188-92.867188zm0 0"/><path style="fill: #FFBF00;"  d="m502 114.984375h-55.429688v-37.492187h30.332032c5.523437 0 10-4.476563 10-10v-57.492188c0-5.523438-4.476563-10-10-10h-285.980469c-5.523437 0-10 4.476562-10 10v46.925781s-22.46875 0-26.910156 0c-84.921875 0-154.011719 69.089844-154.011719 154.011719 0 9.027344.792969 18.089844 2.355469 26.941406.957031 5.4375 6.148437 9.066406 11.585937 8.105469 5.4375-.957031 9.066406-6.144531 8.109375-11.585937-1.363281-7.699219-2.050781-15.59375-2.050781-23.460938 0-73.894531 60.117188-134.011719 134.011719-134.011719 11.351562 0 22.71875 1.4375 33.707031 4.296875 57.628906 14.988282 100.304688 67.460938 100.304688 129.714844 0 70.394531-54.554688 128.285156-123.605469 133.613281-3.460938.261719-6.9375.398438-10.40625.398438-34.816407 0-67.808594-13.292969-92.894531-37.429688-3.980469-3.828125-10.308594-3.703125-14.140626.273438-3.828124 3.980469-3.707031 10.3125.273438 14.140625 9.382812 9.027344 19.734375 16.726562 30.800781 23.015625h-39.265625c-5.523437 0-10 4.476562-10 10 0 5.523437 4.476563 10 10 10h115.140625c.027344 0 .058594.003906.085938.003906 0 0 259.671875-.003906 259.703125-.003906h69.542968c5.523438 0 10-4.476563 10-10 0-5.523438-4.476562-10-10-10h-59.628906v-37.488281h53.273438c5.523437 0 10-4.480469 10-10v-104.980469h15.097656c5.523438 0 10-4.476563 10-10v-57.496094c0-5.523437-4.476562-10-10-10zm-301.078125-94.984375h265.980469v37.492188h-80.90625c-5.523438 0-10 4.476562-10 10v.003906c0 5.523437 4.476562 10 10 10h40.574218v37.488281h-152.082031c-12.167969-15.257813-26.992187-27.917969-43.582031-37.488281h64.929688c5.523437 0 10-4.476563 10-10 0-.34375-.019532-.6875-.054688-1.023438-.507812-5.042968-4.769531-8.980468-9.945312-8.980468h-94.914063zm202.707031 324.949219h-173.664062c16.832031-9.570313 31.902344-22.386719 44.074218-37.492188h129.589844zm63.273438-57.492188h-179.21875c3.03125-5.300781 5.734375-10.792969 8.121094-16.410156 2.90625-6.832031 5.339843-13.890625 7.226562-21.074219h163.871094zm0-57.484375h-160.042969c1.527344-12.425781 1.550781-25.066406.066406-37.496094h159.976563zm25.097656-57.496094h-188.8125c-3.375-13.171874-8.441406-25.714843-15.148438-37.492187h203.960938zm0 0"/><path style="fill: #FFBF00;"  d="m94.59375 245.242188c1.789062 3.09375 5.089844 5 8.660156 5h28.066406l14.03125 24.308593c1.789063 3.09375 5.089844 5 8.660157 5 3.574219 0 6.875-1.90625 8.660156-5l14.035156-24.308593h28.0625c3.574219 0 6.875-1.90625 8.660157-5 1.789062-3.09375 1.789062-6.90625 0-10l-14.03125-24.304688 14.03125-24.304688c1.789062-3.09375 1.789062-6.90625 0-10-1.785157-3.09375-5.085938-5-8.660157-5h-28.0625l-14.035156-24.308593c-1.785156-3.09375-5.085937-5-8.660156-5-3.570313 0-6.871094 1.90625-8.660157 5l-14.03125 24.308593h-28.066406c-3.570312 0-6.871094 1.90625-8.660156 5-1.785156 3.09375-1.785156 6.90625 0 10l14.035156 24.304688-14.035156 24.304688c-1.785156 3.09375-1.785156 6.90625 0 10zm34.242188-39.304688-8.261719-14.304688h16.519531c3.574219 0 6.875-1.90625 8.660156-5l8.261719-14.308593 8.257813 14.308593c1.785156 3.09375 5.085937 5 8.660156 5h16.519531l-8.261719 14.304688c-1.785156 3.09375-1.785156 6.90625 0 10l8.261719 14.304688h-16.519531c-3.574219 0-6.875 1.90625-8.660156 5l-8.257813 14.308593-8.261719-14.308593c-1.785156-3.09375-5.085937-5-8.660156-5h-16.519531l8.261719-14.304688c1.785156-3.09375 1.785156-6.90625 0-10zm0 0"/><path style="fill: #FFBF00;"  d="m331.679688 71.417969c2.066406 5.039062 8.039062 7.492187 13.058593 5.410156 5.03125-2.089844 7.496094-8.023437 5.410157-13.0625-2.082032-5.03125-8.03125-7.492187-13.058594-5.410156s-7.503906 8.035156-5.410156 13.0625zm0 0"/><path style="fill: #FFBF00;"  d="m31.050781 288.535156c5.039063-2.0625 7.492188-8.042968 5.410157-13.058594-2.089844-5.03125-8.011719-7.492187-13.050782-5.410156-5.042968 2.082032-7.5 8.027344-5.410156 13.0625 2.082031 5.019532 8.019531 7.503906 13.050781 5.40625zm0 0"/></svg>