<svg id="icons" enable-background="new 0 0 64 64" height="512" viewBox="0 0 64 64" width="512" xmlns="http://www.w3.org/2000/svg"><path style="fill: #FFBF00;" d="m32 64c16.542 0 30-13.458 30-30 0-15.196-11.105-27.773-26.021-29.735.009-.09.021-.18.021-.265 0-2.206-1.794-4-4-4s-4 1.794-4 4c0 .085.012.175.021.265-14.916 1.962-26.021 14.539-26.021 29.735 0 16.542 13.458 30 30 30zm23.212-35.211c.552 0 1-.447 1-1 0-.104-.03-.198-.06-.293.469 1.767.75 3.609.823 5.51h-14.026c-.115-1.278-.454-2.489-.97-3.605l12.188-7.036c.824 1.579 1.479 3.26 1.954 5.018-.156-.349-.503-.593-.909-.593h-.011c-.552 0-.994.447-.994 1s.452.999 1.005.999zm.001 12.422c.386 0 .711-.226.878-.546-.48 1.735-1.144 3.396-1.968 4.96l-12.149-7.015c.518-1.115.858-2.326.976-3.604h14.025c-.072 1.819-.336 3.591-.779 5.291.003-.03.018-.056.018-.086 0-.553-.448-1-1-1h-.011c-.552 0-.994.447-.994 1s.451 1 1.004 1zm-6.212 8.76h-.011c-.552 0-.994.447-.994 1s.452 1 1.005 1c.206 0 .386-.077.545-.184-1.272 1.256-2.682 2.374-4.199 3.336l-7.012-12.146c1.021-.724 1.913-1.614 2.638-2.636l12.146 7.013c-.952 1.501-2.058 2.895-3.298 4.156.104-.158.181-.336.181-.54-.001-.552-.449-.999-1.001-.999zm-10.76 6.211h-.011c-.552 0-.994.447-.994 1s.452 1 1.005 1c.128 0 .247-.029.359-.072-1.796.492-3.67.789-5.601.865v-14.026c1.277-.115 2.488-.455 3.603-.972l7.015 12.149c-1.57.827-3.237 1.491-4.98 1.972.354-.153.604-.505.604-.917 0-.552-.448-.999-1-.999zm-17.858-.055 7.017-12.148c1.114.516 2.324.855 3.601.971v14.025c-3.821-.152-7.423-1.163-10.618-2.848zm-9.502-8.773 12.147-7.012c.724 1.021 1.616 1.914 2.639 2.637l-7.015 12.145c-3.129-1.985-5.787-4.643-7.771-7.77zm25.615-21.139c.001.001.002.002.003.003s.003.001.004.002c2.68 1.557 4.491 4.45 4.496 7.766 0 .007-.004.014-.004.021s.004.012.004.019c-.014 4.95-4.044 8.974-8.999 8.974-4.963 0-9-4.037-9-9s4.037-9 9-9c1.639 0 3.172.447 4.496 1.215zm-5.496-16.837v13.673c-1.279.116-2.491.456-3.607.974l-7.036-12.185c3.111-1.624 6.617-2.611 10.357-2.799.106.127.202.239.286.337zm-12.379 3.455 7.04 12.192c-1.023.726-1.916 1.618-2.641 2.643l-12.188-7.037c1.981-3.147 4.639-5.816 7.789-7.798zm-8.788 9.53 12.188 7.037c-.517 1.115-.855 2.327-.971 3.605h-14.026c.148-3.836 1.141-7.445 2.809-10.642zm11.218 12.643c.117 1.278.458 2.489.976 3.604l-12.15 7.014c-1.687-3.196-2.699-6.798-2.852-10.618zm19.928-7.338c-.724-1.023-1.616-1.916-2.639-2.641l7.04-12.194c3.149 1.983 5.808 4.652 7.787 7.799zm-4.37-3.643c-1.116-.518-2.329-.858-3.609-.975v-13.672c.085-.098.181-.211.287-.34 3.74.188 7.247 1.177 10.357 2.802zm-4.609-22.025c1.103 0 2 .897 2 2 0 .164-.064.386-.175.646-.003.006-.006.013-.009.02-.32.742-1.024 1.794-1.799 2.765-.005.007-.016.01-.021.018-.002-.002-.004-.004-.006-.006-1.057-1.333-1.99-2.826-1.99-3.443 0-1.103.897-2 2-2zm-3.274 4.196c.174.319.367.636.57.944-13.765 1.349-24.296 12.807-24.296 26.86 0 4.898 1.318 9.492 3.608 13.458.007.014.007.03.015.044.012.02.028.034.041.054 2.362 4.05 5.745 7.431 9.798 9.79.016.01.024.026.041.036.024.015.052.02.077.032 3.957 2.276 8.537 3.586 13.42 3.586 4.878 0 9.454-1.307 13.407-3.579.03-.014.062-.021.09-.037.02-.011.029-.03.048-.042 4.045-2.356 7.424-5.731 9.783-9.774.016-.022.036-.039.05-.063.01-.017.009-.036.018-.053 2.288-3.965 3.604-8.556 3.604-13.452 0-14.053-10.53-25.51-24.295-26.861.202-.308.396-.624.569-.942 14.142 1.638 24.726 13.471 24.726 27.803 0 15.439-12.561 28-28 28s-28-12.561-28-28c0-14.332 10.584-26.165 24.726-27.804z"/><path style="fill: #FFBF00;" d="m8.847 39.211h-.011c-.552 0-.994.447-.994 1s.452 1 1.005 1c.552 0 1-.447 1-1s-.449-1-1-1z"/><path style="fill: #FFBF00;" d="m49.001 16.029h-.011c-.552 0-.994.447-.994 1s.452 1 1.005 1c.552 0 1-.447 1-1s-.448-1-1-1z"/><path style="fill: #FFBF00;" d="m15.059 49.971h-.011c-.552 0-.994.447-.994 1s.452 1 1.005 1c.552 0 1-.447 1-1s-.449-1-1-1z"/><path style="fill: #FFBF00;" d="m38.242 11.816c.552 0 1-.447 1-1s-.448-1-1-1h-.011c-.552 0-.994.447-.994 1s.452 1 1.005 1z"/><path style="fill: #FFBF00;" d="m25.817 56.182h-.011c-.552 0-.994.447-.994 1s.452 1 1.005 1c.552 0 1-.447 1-1s-.448-1-1-1z"/><path style="fill: #FFBF00;" d="m25.818 11.816c.552 0 1-.447 1-1s-.448-1-1-1h-.011c-.552 0-.994.447-.994 1s.453 1 1.005 1z"/><path style="fill: #FFBF00;" d="m15.059 18.027c.552 0 1-.447 1-1s-.448-1-1-1h-.011c-.552 0-.994.447-.994 1s.452 1 1.005 1z"/><path style="fill: #FFBF00;" d="m8.847 28.787c.552 0 1-.447 1-1s-.448-1-1-1h-.011c-.552 0-.994.447-.994 1s.452 1 1.005 1z"/><path style="fill: #FFBF00;" d="m26 32c0 .553.447 1 1 1h9.997c.553 0 1-.447 1-1s-.447-1-1-1h-9.997c-.553 0-1 .447-1 1z"/><path style="fill: #FFBF00;" d="m36.997 34h-9.997c-.553 0-1 .447-1 1s.447 1 1 1h9.997c.553 0 1-.447 1-1s-.447-1-1-1z"/><path style="fill: #FFBF00;" d="m34 37h-4.003c-.553 0-1 .447-1 1s.447 1 1 1h4.003c.553 0 1-.447 1-1s-.447-1-1-1z"/></svg>