<svg id="icons" enable-background="new 0 0 64 64" height="512" viewBox="0 0 64 64" width="512" xmlns="http://www.w3.org/2000/svg"><path style="fill: #FFBF00;" d="m5.498 56.922h42.006c2.757 0 5-2.243 5-5v-7.006h9.998c.553 0 1-.447 1-1v-8.002c0-.553-.447-1-1-1h-1.002v-18.216c1.221-.994 2.002-2.507 2.002-4.2 0-2.988-2.431-5.42-5.418-5.42-2.988 0-5.42 2.432-5.42 5.42 0 1.612.712 3.059 1.834 4.052v18.364h-1.994v-7.002c0-.001 0-.001 0-.002s0-.001 0-.002c0-2.757-2.243-5-5-5h-42.006c-2.757 0-5 2.243-5 5v24.014c0 2.757 2.243 5 5 5zm11.002-5v-24.014c0-1.654 1.346-3 3-3h10.027c-.635.838-1.025 1.87-1.025 3v24.014c0 1.13.391 2.162 1.025 3h-10.027c-1.654 0-3-1.346-3-3zm27.029-27.014c-.635.838-1.025 1.87-1.025 3v24.014c0 1.13.391 2.162 1.025 3h-10.027c-1.654 0-3-1.346-3-3v-24.014c0-1.654 1.346-3 3-3zm17.973 18.008h-12.998v-6.002h2.98c.007 0 .013.004.02.004s.013-.004.02-.004h3.955c.007 0 .013.004.02.004s.013-.004.02-.004h4.963c.007 0 .013.004.02.004s.013-.004.02-.004h.982v6.002zm-3.418-33.838c1.885 0 3.418 1.534 3.418 3.42 0 1.885-1.533 3.418-3.418 3.418-1.886 0-3.42-1.533-3.42-3.418 0-1.886 1.534-3.42 3.42-3.42zm-1.586 8.6c.502.154 1.034.238 1.586.238.49 0 .964-.071 1.416-.194v17.192h-3.002zm-5.994 10.23v.002s0 .001 0 .002v7.002h-3c-.553 0-1 .447-1 1v8.002c0 .553.447 1 1 1h3v7.006c0 1.654-1.346 3-3 3s-3-1.346-3-3v-24.014c0-1.654 1.346-3 3-3s3 1.346 3 3zm-45.006-3h10.027c-.635.838-1.025 1.87-1.025 3v24.014c0 1.13.391 2.162 1.025 3h-10.027c-1.654 0-3-1.346-3-3v-24.014c0-1.654 1.346-3 3-3z"/><path style="fill: #FFBF00;" d="m5.5 32.914h3.996v15.006c0 .553.447 1 1 1s1-.447 1-1v-16.006c0-.553-.447-1-1-1h-4.996c-.553 0-1 .447-1 1s.447 1 1 1z"/><path style="fill: #FFBF00;" d="m24.498 30.914h-4.996c-.553 0-1 .447-1 1s.447 1 1 1h3.996v15.006c0 .553.447 1 1 1s1-.447 1-1v-16.006c0-.553-.447-1-1-1z"/><path style="fill: #FFBF00;" d="m33.502 32.914h3.996v15.006c0 .553.447 1 1 1s1-.447 1-1v-16.006c0-.553-.447-1-1-1h-4.996c-.553 0-1 .447-1 1s.447 1 1 1z"/></svg>