<svg id="Capa_1" enable-background="new 0 0 512 512" height="512" viewBox="0 0 512 512" width="512" xmlns="http://www.w3.org/2000/svg">
    <path style="fill: #e8b238;" d="m412.314 96.194h-80.677v-72.662c0-12.975-10.556-23.532-23.532-23.532h-208.419c-12.976 0-23.533 10.557-23.533 23.532v368.742c0 12.976 10.557 23.532 23.532 23.532h80.677v72.662c0 12.976 10.557 23.532 23.532 23.532h208.419c12.976 0 23.532-10.557 23.532-23.532v-368.742c.002-12.976-10.555-23.532-23.531-23.532zm-312.628 304.612c-4.705 0-8.532-3.828-8.532-8.532v-368.742c0-4.705 3.828-8.532 8.532-8.532h208.419c4.705 0 8.532 3.828 8.532 8.532v72.661h-112.742c-12.976 0-23.532 10.557-23.532 23.532v281.081zm321.161 87.662c0 4.705-3.828 8.532-8.532 8.532h-208.42c-4.705 0-8.532-3.828-8.532-8.532v-368.742c0-4.705 3.828-8.532 8.532-8.532h208.419c4.705 0 8.532 3.828 8.532 8.532v368.742z" />
    <path style="fill: #e8b238;" d="m217.294 206.91c3.878 1.455 8.201-.511 9.656-4.389l4.187-11.166h25.678l4.187 11.166c1.129 3.011 3.987 4.869 7.023 4.868.875 0 1.765-.154 2.632-.479 3.878-1.454 5.844-5.778 4.389-9.656l-24.049-64.129c-1.098-2.927-3.896-4.866-7.022-4.866s-5.925 1.939-7.022 4.867l-24.048 64.129c-1.455 3.877.511 8.2 4.389 9.655zm26.682-49.792 7.214 19.237h-14.428z" />
    <path style="fill: #e8b238;" d="m379.256 405.673c-1.098-2.927-3.896-4.867-7.022-4.867s-5.925 1.939-7.022 4.867l-24.048 64.129c-1.455 3.878.511 8.201 4.389 9.656 3.878 1.454 8.201-.511 9.656-4.389l4.187-11.166h25.678l4.187 11.166c1.129 3.011 3.987 4.869 7.023 4.869.875 0 1.765-.154 2.632-.479 3.878-1.455 5.844-5.777 4.389-9.656zm-14.236 43.23 7.214-19.237 7.214 19.237z" />
    <path style="fill: #e8b238;" d="m316.12 464.936h-88.692v-232.981c0-4.142-3.358-7.5-7.5-7.5s-7.5 3.358-7.5 7.5v240.481c0 4.142 3.358 7.5 7.5 7.5h96.192c4.142 0 7.5-3.358 7.5-7.5s-3.358-7.5-7.5-7.5z" />
    <path style="fill: #e8b238;" d="m396.282 128.258h-120.244c-4.142 0-7.5 3.358-7.5 7.5s3.358 7.5 7.5 7.5h112.745v241c0 4.142 3.358 7.5 7.5 7.5s7.5-3.358 7.5-7.5v-248.5c-.001-4.142-3.359-7.5-7.501-7.5z" />
    <path style="fill: #e8b238;" d="m261.665 308.072 40.081 64.129c1.371 2.193 3.774 3.525 6.36 3.525s4.989-1.332 6.36-3.525l40.081-64.129c1.52-2.432 1.52-5.518 0-7.95l-40.081-64.129c-1.371-2.193-3.774-3.525-6.36-3.525s-4.989 1.332-6.36 3.525l-40.081 64.129c-1.52 2.432-1.52 5.518 0 7.95zm46.44-53.953 31.236 49.978-31.236 49.978-31.236-49.978z" />
    <path style="fill: #e8b238;" d="m113.084 110.716c3.878 1.455 8.202-.511 9.656-4.389l4.187-11.166h25.678l4.187 11.166c1.129 3.011 3.987 4.869 7.023 4.869.875 0 1.765-.154 2.632-.479 3.878-1.454 5.844-5.778 4.389-9.656l-24.048-64.129c-1.098-2.927-3.896-4.867-7.022-4.867s-5.925 1.939-7.022 4.867l-24.048 64.129c-1.455 3.877.51 8.201 4.388 9.655zm26.682-49.791 7.214 19.237h-14.428z" />
    <path style="fill: #e8b238;" d="m163.814 368.742h-40.597v-232.981c0-4.142-3.358-7.5-7.5-7.5s-7.5 3.358-7.5 7.5v240.481c0 4.142 3.358 7.5 7.5 7.5h48.097c4.142 0 7.5-3.358 7.5-7.5s-3.357-7.5-7.5-7.5z" />
    <path style="fill: #e8b238;" d="m284.573 71.629c0 4.142 3.358 7.5 7.5 7.5s7.5-3.358 7.5-7.5v-32.065c0-4.142-3.358-7.5-7.5-7.5h-120.245c-4.142 0-7.5 3.358-7.5 7.5s3.358 7.5 7.5 7.5h112.745z" />
</svg>