<svg width="13" height="45" viewBox="0 0 13 45" fill="none" xmlns="http://www.w3.org/2000/svg"><path d="M13 37.1V33.9L7.96124 29L13 24V21L7.96124 16L13 11V8L7.96124 3L10.9845 0H8.16279L6.55039 1.6L4.93798 0H2.0155L5.03876 3L0 8V11L5.13953 16L0 21V24L5.13953 29L0 34V37L5.13953 42L2.11628 45H4.93798L6.55039 43.4L8.16279 45H11.0853L8.06202 42L13 37.1ZM1.31008 9.5L6.55039 4.4L11.7907 9.5L6.55039 14.6L1.31008 9.5ZM1.31008 22.5L6.55039 17.4L11.7907 22.5L6.55039 27.6L1.31008 22.5ZM1.31008 35.5L6.55039 30.4L11.7907 35.5L6.55039 40.6L1.31008 35.5Z" fill="#102135" fill-opacity="0.3"/></svg>